<svg width="108" height="43" viewBox="0 0 108 43" fill="none" xmlns="http://www.w3.org/2000/svg">
<path fill-rule="evenodd" clip-rule="evenodd" d="M57.3361 0.465388C56.8496 0.148078 56.2996 0 55.6438 0C54.9246 0 54.565 0.126924 54.2477 0.465388C53.9938 0.74039 52.3226 2.83464 50.5245 5.14043C48.7265 7.46737 47.2457 9.41354 47.2245 9.477C47.2034 9.56161 47.5841 10.1539 48.0707 10.7885C48.5361 11.4232 48.9803 12.3116 49.0649 12.777L49.213 13.5809C51.0111 13.3693 52.1534 13.1578 52.9149 12.9674C53.6765 12.777 54.8611 12.3751 55.5592 12.0789C56.2573 11.7616 57.2304 11.1059 57.7381 10.6193C58.2246 10.1328 58.8592 9.22315 59.1554 8.63084C59.4304 8.01737 59.7265 7.04429 59.8112 6.45197C59.8958 5.75389 59.8112 4.90773 59.5996 4.01926C59.4092 3.25772 58.9862 2.26348 58.6688 1.79809C58.3304 1.3327 57.7381 0.74039 57.3361 0.465388ZM23.0878 6.66351C22.7916 6.51544 22.1359 6.3462 21.607 6.28274C21.0782 6.21928 20.3166 6.26159 19.9147 6.36736C19.5128 6.49428 19.0262 6.72698 18.857 6.87505C18.6878 7.02313 17.8204 8.22891 16.932 9.54046C16.0435 10.8732 14.8166 12.7559 14.2031 13.7501C13.5685 14.7443 12.4896 16.5424 11.7704 17.7694C11.0512 18.9963 9.57038 21.6617 8.44921 23.6925C7.34921 25.7233 5.2338 29.7214 3.77418 32.5772C2.3357 35.433 0.897231 38.4157 0.601075 39.2407C0.304918 40.0657 0.0510703 41.0176 0.0299163 41.3561C0.00876228 41.6946 -0.0123917 42.16 0.00876228 42.3715C0.0299163 42.6676 0.241456 42.7311 1.36262 42.7311C2.27224 42.71 2.86455 42.6042 3.30879 42.3292C3.64725 42.1176 4.42995 41.3772 5.04342 40.7003C5.63573 40.0022 6.46074 38.8811 6.88382 38.183C7.3069 37.4849 7.96267 35.9618 8.32229 34.7984C8.68191 33.6349 9.02037 32.6195 9.10499 32.5137C9.16845 32.4291 9.71845 32.6195 10.2896 32.9156C11.2839 33.4656 11.4319 33.4868 12.9339 33.2964C13.8012 33.1906 16.4666 33.106 18.857 33.1272C21.7974 33.1272 23.9763 33.2541 25.6263 33.508C26.959 33.6983 29.3071 34.1003 30.809 34.3964C32.3109 34.6926 34.7013 35.2214 36.0975 35.5599C37.4937 35.8984 39.9687 36.5753 41.5976 37.0407C43.2264 37.5061 45.8495 38.3311 47.4149 38.8599C48.9803 39.3888 51.8361 40.4253 53.7611 41.1869C55.6861 41.9484 57.6534 42.6253 58.1611 42.71C58.965 42.8157 59.0496 42.7946 59.0708 42.4138C59.0708 42.1811 58.9438 41.8849 58.7958 41.758C58.6477 41.6311 57.04 40.8272 55.2419 39.9811C53.4438 39.1349 50.7784 37.908 49.3188 37.2945C47.8591 36.6599 45.5322 35.7291 44.136 35.2214C42.7399 34.7137 39.736 33.7618 37.4725 33.1272C35.209 32.4714 31.7398 31.6041 29.7513 31.2022C27.7628 30.8002 24.2936 30.2291 22.0301 29.9541C19.7666 29.6579 17.0166 29.3618 15.9377 29.256C14.8589 29.1714 13.9916 29.0445 13.9916 28.981C13.9704 28.9175 15.007 28.4098 16.255 27.8387C17.5031 27.2887 22.3474 25.1733 27.0013 23.1636C31.6552 21.154 36.9014 18.8694 38.636 18.0867C40.3918 17.304 42.9514 16.0982 44.3476 15.4001C45.5362 14.8058 46.5562 14.3035 46.8592 14.1542C46.9122 14.1282 46.9432 14.1129 46.9495 14.1097C46.9707 14.0886 46.6534 13.327 46.2091 12.4174C45.7649 11.5289 45.3207 10.7885 45.1937 10.7885C45.088 10.7885 42.8456 11.8251 40.2225 13.0943C37.5994 14.3636 32.5225 16.8386 28.9051 18.6155C26.6574 19.7262 23.8312 21.1095 21.3976 22.3007C19.9376 23.0153 18.6189 23.6608 17.6512 24.1367C15.0493 25.406 12.8492 26.4425 12.7223 26.4425C12.6166 26.4425 12.5108 26.4002 12.5108 26.3367C12.5108 26.2733 12.9973 25.5329 13.5896 24.7079C14.182 23.8617 15.8954 21.4079 17.3762 19.2502C18.0535 18.2772 18.7437 17.2912 19.3343 16.4476C20.0534 15.4204 20.6248 14.6042 20.8455 14.279C21.2474 13.7078 22.3051 12.2059 23.1936 10.9578C24.0609 9.68854 24.7801 8.54622 24.7801 8.4193C24.8013 8.27122 24.5263 7.86929 24.209 7.53083C23.8916 7.21352 23.3839 6.81159 23.0878 6.66351ZM104.954 11.0212C104.552 10.8943 103.875 10.7885 103.473 10.8097C103.071 10.8097 102.585 10.8732 102.415 10.9155C102.388 10.9256 102.352 10.9389 102.309 10.955C102.08 11.0396 101.646 11.1997 101.273 11.3597C100.829 11.5289 100.279 11.952 100.067 12.2905C99.8345 12.6289 99.5807 13.3059 99.4749 13.7924C99.3692 14.3001 99.3269 15.0405 99.3903 15.4424L99.4961 16.1828C102.035 16.0136 102.119 16.0559 102.69 16.6905C103.071 17.1348 103.261 17.579 103.261 18.0867C103.261 18.6155 103.092 18.9963 102.648 19.4617C102.246 19.8636 101.802 20.0963 101.421 20.0963C101.104 20.0963 100.3 19.9271 99.6653 19.6944C99.0307 19.4828 97.7403 19.1867 96.8095 19.0386C95.8364 18.8905 94.4403 18.8271 93.5307 18.9117C92.6633 18.9752 91.3729 19.1867 90.6749 19.3559C89.9768 19.5463 88.9825 19.9059 88.4748 20.1598C87.9671 20.4136 87.1633 20.9636 86.6768 21.3867C86.1691 21.8309 85.5979 22.6136 85.3017 23.2906C84.8787 24.2425 84.8152 24.7079 84.8787 26.1252C84.9421 27.3098 85.1114 28.0925 85.4287 28.7695C85.6825 29.2983 86.2748 30.1022 86.7402 30.5675C87.1844 31.0329 87.9671 31.6252 88.4748 31.8791C88.9825 32.1541 90.1249 32.5137 90.9922 32.6829C92.198 32.958 93.1499 33.0003 94.9057 32.8945C96.1749 32.8099 97.8884 32.6195 98.7134 32.4714C99.5384 32.3233 100.617 32.006 101.146 31.7733C101.675 31.5618 102.458 31.0541 102.923 30.6522C103.367 30.2502 103.896 29.6368 104.129 29.2983C104.34 28.9598 104.615 28.156 104.742 27.5425C104.869 26.8444 104.89 25.956 104.763 25.131C104.679 24.3906 104.425 23.4598 104.235 23.0579C104.044 22.6559 103.6 22.0002 103.261 21.6406C102.902 21.2598 102.648 20.9213 102.69 20.879C102.711 20.8367 103.452 20.4559 104.319 20.0329C105.187 19.6098 106.16 19.0175 106.498 18.7213C106.815 18.4251 107.281 17.7905 107.535 17.304C107.873 16.6482 108 16.0559 108 15.2309C107.979 14.5117 107.788 13.729 107.513 13.179C107.281 12.6713 106.752 12.0366 106.392 11.7616C106.012 11.4866 105.356 11.1693 104.954 11.0212ZM74.894 12.7347C74.3863 12.3963 73.8786 12.2693 73.2228 12.2693C72.694 12.2905 72.0593 12.3963 71.8266 12.5232C71.5728 12.6289 70.6209 13.8982 69.6901 15.3155C68.7382 16.7117 67.3631 18.9117 66.6016 20.2021C65.8401 21.4925 64.592 23.6713 63.8304 25.0675C63.0689 26.4637 61.4823 29.4675 60.34 31.731C59.1765 33.9945 58.0554 36.3849 57.8015 37.0195C57.5477 37.6541 57.3573 38.5426 57.3573 38.9657C57.3573 39.7695 57.3573 39.7695 58.2669 39.7695C58.7746 39.7695 59.4304 39.6003 59.8535 39.3465C60.2131 39.1138 60.9535 38.3734 61.4823 37.6964C62.0112 37.0407 62.6458 36.0676 62.8785 35.5387C63.1323 35.0099 63.5131 33.9945 63.7247 33.2541C63.9573 32.5349 64.1689 31.9426 64.2323 31.9426C64.2841 31.9426 64.589 32.0832 64.9751 32.2613C65.0625 32.3016 65.154 32.3438 65.2477 32.3868C66.0727 32.8099 66.242 32.831 67.7228 32.5772C68.5901 32.4291 70.8324 32.3233 72.694 32.3233C74.6824 32.3233 77.0305 32.4714 78.4055 32.6829C79.6748 32.8733 81.8748 33.2964 83.271 33.656C84.6671 33.9945 86.571 34.5233 87.5018 34.8195C88.4325 35.1157 90.6537 35.9195 92.4306 36.6176C94.1864 37.2945 95.7941 37.8657 95.9634 37.8657C96.1326 37.8657 96.323 37.8022 96.3864 37.6964C96.4288 37.6118 96.3653 37.3791 96.2172 37.1888C96.0691 36.9772 94.4403 36.1311 92.5787 35.306C90.7172 34.4599 87.8191 33.3387 86.1267 32.7676C84.4344 32.2176 81.9594 31.5195 80.6267 31.2233C79.294 30.9272 76.8613 30.5041 75.2324 30.2714C73.6036 30.0175 71.4247 29.7637 70.367 29.7002C69.3093 29.6156 68.2939 29.4887 68.0824 29.4252C67.8074 29.3406 68.5478 28.9175 70.5151 28.0502C72.0593 27.3733 74.7036 26.1252 76.3959 25.279C78.0882 24.4329 79.8017 23.6502 80.2036 23.5233C80.6056 23.3963 81.1979 23.1002 81.5363 22.8463C81.8959 22.5925 82.1075 22.2329 82.1075 21.8944C82.1075 21.5982 81.9383 21.1329 81.7479 20.8367C81.5363 20.5405 81.2402 20.2444 81.1132 20.2021C80.9652 20.1386 80.394 20.4348 79.844 20.8579C79.2729 21.2809 76.1209 22.9521 72.7997 24.581C69.4785 26.1887 66.7497 27.4791 66.7285 27.4579C66.6862 27.4156 68.3997 24.9194 70.5151 21.8944C72.6305 18.8694 74.7459 15.8444 75.2113 15.1674C75.9094 14.1732 76.0363 13.8559 75.8459 13.5809C75.719 13.3905 75.2959 13.0097 74.894 12.7347ZM50.7572 18.2982C49.9534 18.1078 48.5149 18.0021 47.0976 18.0232C45.8284 18.0232 44.538 18.0655 44.2418 18.1078C44.0755 18.1435 43.7491 18.1991 43.3712 18.2635C43.0762 18.3138 42.7498 18.3695 42.4437 18.4251C41.7456 18.5521 40.5187 18.9751 39.6937 19.3559C38.8687 19.7367 37.811 20.4771 37.3033 20.9848C36.7956 21.5136 36.2667 22.2963 36.0975 22.8463C35.9071 23.3752 35.7802 24.5175 35.7802 25.3848C35.7802 26.2521 35.9071 27.3944 36.0975 27.9233C36.2667 28.4521 36.7744 29.2983 37.2187 29.8272C37.6629 30.356 38.5937 31.0752 39.2918 31.456C39.9687 31.8156 41.1533 32.3022 41.9149 32.4926C42.9514 32.7887 44.0937 32.8733 46.6745 32.8733C49.5515 32.8733 50.2707 32.8099 51.5399 32.4079C52.3649 32.1541 53.5496 31.6253 54.1842 31.2233C54.8188 30.8426 55.6015 30.1445 55.9188 29.7002C56.2361 29.2348 56.6381 28.4521 56.8284 27.9233C57.0188 27.3944 57.1669 26.3156 57.1669 25.4906C57.1669 24.581 57.0188 23.6079 56.7861 22.9733C56.5746 22.4021 55.9823 21.4502 55.4534 20.879C54.9246 20.2867 53.9726 19.5675 53.2957 19.229C52.6188 18.8905 51.4765 18.4675 50.7572 18.2982ZM49.5092 20.3713C48.9803 20.9636 47.7534 22.0002 46.7803 22.6559C45.7861 23.3117 44.6649 24.1579 44.263 24.5598C43.8822 24.9617 43.3533 25.7021 43.1207 26.231C42.8245 26.8867 42.6553 27.7329 42.613 28.981C42.5495 30.6098 42.5706 30.7156 42.8245 30.081C42.9514 29.7002 43.2687 29.2771 43.5014 29.1502C43.7341 29.0233 44.3053 28.981 44.8341 29.0656C45.3207 29.1291 46.1034 29.3829 46.5688 29.6156C47.0765 29.8695 47.838 30.0387 48.4726 30.0387H49.5303C49.5303 28.7271 49.6361 28.156 49.7419 27.9233C49.8476 27.6906 50.1015 27.5002 50.2707 27.5002C50.4399 27.5002 50.588 27.3944 50.588 27.2887C50.588 27.1617 50.4399 27.0348 50.2707 26.9714C50.1015 26.9079 49.9534 26.7598 49.9534 26.654C49.9534 26.5271 50.1226 26.4214 50.3342 26.379C50.6303 26.3579 50.7784 26.0829 50.863 25.4271C50.9688 24.7925 51.1169 24.5175 51.4342 24.4329C51.6669 24.3694 51.8573 24.2213 51.8573 24.1156C51.8573 23.9886 51.5188 23.3963 51.0957 22.7829C50.3765 21.7463 50.3342 21.6194 50.4611 20.4559C50.5246 19.8001 50.5457 19.2501 50.5246 19.2501C50.4822 19.2501 50.0169 19.7578 49.5092 20.3502V20.3713ZM91.0556 20.8578C91.1191 21.3232 91.0768 22.0848 90.971 22.5502C90.8653 23.0156 90.5268 23.6713 90.2095 23.9886L89.6172 24.581C90.3364 25.131 90.6114 25.6175 90.7172 26.0194C90.823 26.4848 91.0345 26.7598 91.3095 26.8021C91.5422 26.8444 91.7537 26.9291 91.796 26.9925C91.8172 27.056 91.648 27.1829 91.4153 27.3098C91.1826 27.4156 90.9922 27.606 90.9922 27.7329C90.9922 27.8387 91.1403 27.9444 91.3095 27.9444C91.4787 27.9444 91.7326 28.1771 91.8383 28.4733C91.9441 28.7695 92.0287 29.1291 92.0287 29.256C92.0076 29.4041 92.0076 29.7002 92.0287 29.8906C92.0499 30.1868 92.2403 30.2714 92.8537 30.2714C93.2768 30.2714 94.3557 30.0175 95.223 29.7214C96.1115 29.4252 97.0211 29.2348 97.2961 29.2983C97.5499 29.3618 97.9095 29.6791 98.0788 29.9964L98.3749 30.5887C98.3961 29.1925 98.2903 28.2829 98.1634 27.6694C98.0365 27.0771 97.7403 26.231 97.5288 25.829C97.2538 25.3425 96.4288 24.6233 95.0749 23.7136C93.9537 22.9521 92.5576 21.8098 91.9864 21.1752L90.9499 20.0117L91.0556 20.8578Z" fill="#861A3E"/>
</svg>
