<svg width="807" height="321" viewBox="0 0 807 321" fill="none" xmlns="http://www.w3.org/2000/svg">
<path fill-rule="evenodd" clip-rule="evenodd" d="M428.428 4.16425C424.793 1.79324 420.683 0.686768 415.783 0.686768C410.409 0.686768 407.721 1.63517 405.35 4.16425C403.454 6.21913 390.966 21.8678 377.531 39.0972C364.095 56.4846 353.03 71.0268 352.872 71.501C352.714 72.1333 355.559 76.5592 359.195 81.3012C362.672 86.0432 365.992 92.682 366.624 96.1595L367.73 102.166C381.166 100.585 389.702 99.0047 395.392 97.5821C401.083 96.1595 409.934 93.1562 415.151 90.9433C420.367 88.5723 427.638 83.6722 431.432 80.0366C435.067 76.4011 439.809 69.6042 442.022 65.1783C444.077 60.5943 446.29 53.3232 446.922 48.8973C447.555 43.6811 446.922 37.3584 445.342 30.7196C443.919 25.0292 440.758 17.6 438.387 14.1225C435.858 10.645 431.432 6.21913 428.428 4.16425ZM172.517 50.478C170.304 49.3716 165.404 48.107 161.452 47.6328C157.501 47.1586 151.81 47.4747 148.807 48.2651C145.804 49.2135 142.168 50.9522 140.904 52.0587C139.639 53.1652 133.158 62.175 126.519 71.9752C119.881 81.9334 110.713 96.0015 106.129 103.431C101.387 110.86 93.3253 124.296 87.951 133.463C82.5767 142.631 71.512 162.548 63.1344 177.722C54.9149 192.897 39.1081 222.772 28.2015 244.111C17.4529 265.45 6.70431 287.737 4.49136 293.902C2.27842 300.067 0.381609 307.18 0.223541 309.709C0.0654737 312.238 -0.0925938 315.715 0.0654737 317.296C0.223541 319.509 1.80422 319.983 10.1818 319.983C16.9787 319.825 21.4046 319.035 24.724 316.98C27.2531 315.399 33.1016 309.867 37.6855 304.809C42.1114 299.592 48.2761 291.215 51.4374 285.999C54.5988 280.782 59.4989 269.401 62.186 260.708C64.8731 252.014 67.4022 244.427 68.0345 243.636C68.5087 243.004 72.6185 244.427 76.8863 246.64C84.3154 250.75 85.4219 250.908 96.6447 249.485C103.125 248.695 123.042 248.062 140.904 248.22C162.875 248.22 179.156 249.169 191.485 251.066C201.443 252.488 218.989 255.492 230.212 257.704C241.435 259.917 259.296 263.869 269.729 266.398C280.161 268.927 298.655 273.985 310.826 277.463C322.997 280.94 342.598 287.105 354.295 291.057C365.992 295.008 387.331 302.754 401.715 308.444C416.099 314.135 430.799 319.193 434.593 319.825C440.6 320.615 441.232 320.457 441.39 317.612C441.39 315.873 440.441 313.66 439.335 312.712C438.229 311.764 426.215 305.757 412.78 299.434C399.344 293.112 379.427 283.944 368.521 279.36C357.614 274.618 340.227 267.663 329.794 263.869C319.362 260.076 296.916 252.962 280.003 248.22C263.09 243.32 237.167 236.84 222.308 233.836C207.45 230.833 181.527 226.565 164.614 224.51C147.701 222.297 127.152 220.084 119.09 219.294C111.029 218.662 104.548 217.713 104.548 217.239C104.39 216.765 112.135 212.971 121.461 208.704C130.787 204.594 166.985 188.787 201.76 173.771C236.534 158.754 275.735 141.683 288.697 135.834C301.816 129.986 320.942 120.976 331.375 115.76C340.259 111.318 347.881 107.564 350.144 106.45C350.539 106.255 350.77 106.141 350.817 106.118C350.975 105.96 348.604 100.269 345.285 93.4724C341.965 86.8335 338.646 81.3012 337.698 81.3012C336.907 81.3012 320.152 89.0465 300.552 98.5305C280.951 108.015 243.015 126.508 215.986 139.786C199.191 148.085 178.075 158.421 159.891 167.321C148.98 172.661 139.126 177.485 131.894 181.042C112.451 190.526 96.0124 198.271 95.064 198.271C94.2737 198.271 93.4834 197.955 93.4834 197.481C93.4834 197.007 97.1189 191.474 101.545 185.31C105.971 178.987 118.774 160.651 129.839 144.528C134.9 137.258 140.057 129.891 144.469 123.588C149.843 115.912 154.113 109.812 155.762 107.382C158.765 103.114 166.669 91.8917 173.307 82.5657C179.788 73.0817 185.162 64.546 185.162 63.5976C185.321 62.4911 183.266 59.4879 180.895 56.9588C178.524 54.5878 174.73 51.5845 172.517 50.478ZM784.238 83.0399C781.235 82.0915 776.177 81.3012 773.174 81.4592C770.17 81.4592 766.535 81.9334 765.27 82.2496C765.069 82.3251 764.799 82.4247 764.475 82.5445C762.763 83.1769 759.525 84.373 756.735 85.569C753.415 86.8335 749.305 89.9949 747.725 92.524C745.986 95.053 744.089 100.111 743.299 103.747C742.508 107.54 742.192 113.073 742.667 116.076L743.457 121.608C762.425 120.344 763.057 120.66 767.325 125.402C770.17 128.721 771.593 132.041 771.593 135.834C771.593 139.786 770.328 142.631 767.009 146.109C764.006 149.112 760.686 150.851 757.841 150.851C755.47 150.851 749.463 149.586 744.721 147.848C739.979 146.267 730.337 144.054 723.382 142.947C716.111 141.841 705.679 141.367 698.882 141.999C692.401 142.473 682.759 144.054 677.543 145.319C672.326 146.741 664.897 149.428 661.104 151.325C657.31 153.222 651.304 157.332 647.668 160.493C643.874 163.812 639.607 169.661 637.394 174.719C634.232 181.832 633.758 185.31 634.232 195.9C634.706 204.752 635.971 210.6 638.342 215.659C640.239 219.61 644.665 225.617 648.142 229.094C651.462 232.572 657.31 236.998 661.104 238.894C664.897 240.949 673.433 243.636 679.914 244.901C688.924 246.956 696.037 247.272 709.156 246.482C718.64 245.849 731.444 244.427 737.608 243.32C743.773 242.214 751.834 239.843 755.786 238.104C759.738 236.523 765.586 232.73 769.064 229.727C772.383 226.723 776.335 222.139 778.074 219.61C779.654 217.081 781.709 211.075 782.658 206.491C783.606 201.274 783.764 194.636 782.816 188.471C782.183 182.939 780.287 175.984 778.864 172.98C777.441 169.977 774.122 165.077 771.593 162.39C768.906 159.545 767.009 157.016 767.325 156.699C767.483 156.383 773.016 153.538 779.496 150.377C785.977 147.215 793.248 142.789 795.777 140.576C798.148 138.364 801.626 133.622 803.523 129.986C806.052 125.086 807 120.66 807 114.495C806.842 109.121 805.419 103.273 803.364 99.1628C801.626 95.3692 797.674 90.6272 794.987 88.5723C792.142 86.5174 787.242 84.1464 784.238 83.0399ZM559.624 95.8434C555.831 93.3143 552.037 92.3659 547.137 92.3659C543.185 92.524 538.443 93.3143 536.705 94.2627C534.808 95.0531 527.695 104.537 520.74 115.128C513.627 125.56 503.352 141.999 497.662 151.641C491.972 161.283 482.646 177.564 476.955 187.997C471.265 198.429 459.41 220.875 450.874 237.788C442.18 254.701 433.803 272.563 431.906 277.305C430.009 282.047 428.586 288.686 428.586 291.847C428.586 297.854 428.586 297.854 435.383 297.854C439.177 297.854 444.077 296.589 447.238 294.692C449.926 292.954 455.458 287.421 459.41 282.363C463.361 277.463 468.103 270.192 469.842 266.24C471.739 262.288 474.584 254.701 476.165 249.169C477.904 243.795 479.484 239.369 479.958 239.369C480.345 239.369 482.624 240.42 485.509 241.75C486.161 242.052 486.845 242.367 487.546 242.688C493.71 245.849 494.975 246.007 506.039 244.111C512.52 243.004 529.275 242.214 543.185 242.214C558.044 242.214 575.589 243.32 585.864 244.901C595.348 246.324 611.787 249.485 622.219 252.172C632.652 254.701 646.878 258.653 653.833 260.866C660.788 263.079 677.385 269.085 690.662 274.302C703.782 279.36 715.795 283.628 717.06 283.628C718.324 283.628 719.747 283.153 720.221 282.363C720.537 281.731 720.063 279.992 718.956 278.569C717.85 276.989 705.679 270.666 691.769 264.501C677.859 258.179 656.204 249.801 643.558 245.533C630.913 241.424 612.419 236.207 602.461 233.994C592.502 231.781 574.325 228.62 562.153 226.881C549.982 224.985 533.701 223.088 525.798 222.613C517.895 221.981 510.307 221.033 508.727 220.559C506.672 219.926 512.204 216.765 526.904 210.284C538.443 205.226 558.202 195.9 570.847 189.577C583.493 183.255 596.296 177.406 599.299 176.458C602.303 175.509 606.728 173.296 609.258 171.4C611.945 169.503 613.525 166.816 613.525 164.287C613.525 162.074 612.261 158.596 610.838 156.383C609.258 154.17 607.045 151.957 606.096 151.641C604.99 151.167 600.722 153.38 596.612 156.541C592.344 159.703 568.792 172.19 543.976 184.361C519.159 196.374 498.768 206.016 498.61 205.858C498.294 205.542 511.098 186.89 526.904 164.287C542.711 141.683 558.518 119.079 561.995 114.021C567.212 106.592 568.16 104.221 566.737 102.166C565.789 100.743 562.628 97.8983 559.624 95.8434ZM379.269 137.415C373.263 135.993 362.514 135.202 351.924 135.36C342.44 135.36 332.798 135.676 330.585 135.993C329.342 136.259 326.903 136.675 324.08 137.156C321.875 137.532 319.436 137.948 317.149 138.364C311.933 139.312 302.765 142.473 296.6 145.319C290.435 148.164 282.532 153.696 278.738 157.49C274.945 161.441 270.993 167.29 269.729 171.4C268.306 175.351 267.358 183.887 267.358 190.368C267.358 196.849 268.306 205.384 269.729 209.336C270.993 213.288 274.787 219.61 278.106 223.562C281.426 227.514 288.381 232.888 293.597 235.733C298.655 238.42 307.507 242.056 313.197 243.478C320.942 245.691 329.478 246.324 348.762 246.324C370.26 246.324 375.634 245.849 385.118 242.846C391.283 240.949 400.134 236.998 404.876 233.994C409.618 231.149 415.467 225.933 417.838 222.613C420.209 219.136 423.212 213.288 424.635 209.336C426.057 205.384 427.164 197.323 427.164 191.158C427.164 184.361 426.057 177.09 424.319 172.348C422.738 168.08 418.312 160.967 414.36 156.699C410.409 152.273 403.296 146.899 398.237 144.37C393.179 141.841 384.644 138.68 379.269 137.415ZM369.943 152.907C365.991 157.332 356.823 165.078 349.552 169.978C342.123 174.878 333.745 181.201 330.742 184.204C327.897 187.207 323.945 192.74 322.206 196.691C319.993 201.591 318.729 207.914 318.413 217.24C317.939 229.411 318.097 230.202 319.993 225.46C320.942 222.614 323.313 219.453 325.052 218.505C326.79 217.556 331.058 217.24 335.01 217.872C338.645 218.347 344.494 220.243 347.971 221.982C351.765 223.879 357.455 225.143 362.197 225.143H370.101C370.101 215.343 370.891 211.075 371.681 209.337C372.472 207.598 374.369 206.175 375.633 206.175C376.898 206.175 378.004 205.385 378.004 204.595C378.004 203.646 376.898 202.698 375.633 202.224C374.369 201.749 373.262 200.643 373.262 199.853C373.262 198.904 374.527 198.114 376.107 197.798C378.32 197.64 379.427 195.585 380.059 190.685C380.849 185.943 381.956 183.888 384.327 183.256C386.066 182.781 387.488 181.675 387.488 180.885C387.488 179.936 384.959 175.51 381.798 170.926C376.423 163.181 376.107 162.233 377.056 153.539C377.53 148.639 377.688 144.529 377.53 144.529C377.214 144.529 373.736 148.323 369.943 152.749V152.907ZM680.387 156.542C680.861 160.02 680.545 165.71 679.755 169.188C678.965 172.665 676.436 177.565 674.065 179.936L669.639 184.362C675.013 188.472 677.068 192.107 677.858 195.111C678.649 198.588 680.229 200.643 682.284 200.959C684.023 201.275 685.604 201.907 685.92 202.382C686.078 202.856 684.813 203.804 683.074 204.753C681.336 205.543 679.913 206.966 679.913 207.914C679.913 208.704 681.02 209.495 682.284 209.495C683.549 209.495 685.445 211.233 686.236 213.446C687.026 215.659 687.658 218.346 687.658 219.295C687.5 220.401 687.5 222.614 687.658 224.037C687.816 226.25 689.239 226.882 693.823 226.882C696.984 226.882 705.046 224.985 711.527 222.772C718.165 220.559 724.962 219.137 727.017 219.611C728.914 220.085 731.601 222.456 732.866 224.827L735.079 229.253C735.237 218.821 734.446 212.024 733.498 207.44C732.55 203.014 730.337 196.691 728.756 193.688C726.701 190.052 720.536 184.678 710.42 177.881C702.043 172.191 691.61 163.655 687.342 158.913L679.597 150.219L680.387 156.542Z" fill="#8E0043"/>
</svg>
